<?xml version="1.0" encoding="utf-8"?>
<!-- Generator: Adobe Illustrator 17.0.0, SVG Export Plug-In . SVG Version: 6.00 Build 0)  -->
<!DOCTYPE svg PUBLIC "-//W3C//DTD SVG 1.1//EN" "http://www.w3.org/Graphics/SVG/1.1/DTD/svg11.dtd">
<svg version="1.1" id="Layer_1" xmlns="http://www.w3.org/2000/svg" xmlns:xlink="http://www.w3.org/1999/xlink" x="0px" y="0px"
	 width="173px" height="117px" viewBox="0 0 173 117" enable-background="new 0 0 173 117" xml:space="preserve">
<path fill="#FFFFFF" d="M74.381,90.555c6.318-3.247,12.616-6.538,18.853-9.937c7.053-3.844,13.731-8.271,19.81-13.688
	c-1.373,0.729-2.788,1.389-4.113,2.197c-5.902,3.6-11.734,7.317-17.676,10.848c-6.097,3.623-12.287,7.091-18.457,10.59
	c-0.622,0.353-1.39,0.448-2.092,0.665c1.913-1.182,2.744-3.648,5.127-4.305c0.53-0.146,0.984-0.568,1.473-0.863
	c-2.374,0.423-4.481,1.359-6.673,2.004c-9.735,2.865-19.526,5.544-29.23,8.511c-3.644,1.114-7.741,1.117-10.774,3.964
	c-0.302,0.283-0.845,0.385-1.289,0.428c-2.659,0.254-5.32,0.495-7.986,0.66c-0.425,0.026-0.875-0.351-1.314-0.541
	c0.814-0.769,1.635-1.057,2.48-1.225c1.537-0.306,3.121-0.423,4.63-0.826c10.862-2.902,21.731-5.784,32.553-8.828
	c4.436-1.248,8.769-2.865,13.133-4.36c0.698-0.239,1.315-0.716,1.97-1.083c-0.573-0.335-0.933-0.306-1.265-0.195
	c-10.761,3.568-21.396,7.651-32.646,9.428c-6.356,1.004-12.814,1.406-19.24,1.908c-1.659,0.13-3.452,0.036-5.186-0.854
	c0.768-1.116,1.761-0.772,2.613-0.802c3.132-0.11,6.286,0.014,9.394-0.309c7.163-0.743,14.251-1.98,21.199-3.922
	c0.416-0.116,0.779-0.425,1.167-0.643c-10.408,0.419-20.655,0.511-31.208-0.728c1.312-1.551,2.895-1.297,4.24-1.408
	c10.316-0.856,20.486-2.589,30.531-5.039c2.228-0.543,4.53-1.068,6.776-2.439c-0.441-0.128-0.534-0.188-0.611-0.172
	c-11.327,2.331-22.775,3.603-34.334,3.794c-3.685,0.061-7.373-0.094-11.059-0.192c-0.76-0.02-1.625-0.025-2.279-1.378
	c1.287-0.039,2.24-0.104,3.191-0.09c3.686,0.054,7.383,0.346,11.056,0.165c12.215-0.602,24.205-2.719,36.006-5.883
	c5.701-1.529,11.467-2.917,17.011-4.907c12.187-4.375,23.891-9.809,34.738-16.985c8.796-5.82,17.186-12.127,24.546-19.719
	c0.99-1.021,1.765-2.249,2.798-3.587c-1.88-1.495-3.298-3.075-5.066-3.92c-2.488-1.188-4.217-4.386-7.701-3.176
	c-0.08,0.028-0.255-0.219-0.507-0.447c0.265-1.116,0.549-2.313,0.892-3.76c-1.735,0.214-3.142,0.388-4.765,0.588
	c0.169-0.922,0.276-1.51,0.343-1.877c-0.596-0.386-1.304-0.608-1.366-0.946c-0.075-0.417,0.282-1.053,0.647-1.372
	c0.391-0.341,1.004-0.434,1.526-0.616c3.551-1.238,6.937-2.877,10.488-4.154c5.273-1.896,10.228-4.674,15.329-7.055
	c2.922-1.364,5.861-2.692,8.802-4.014c0.232-0.104,0.54-0.038,0.879-0.054c0.344,0.506,0.69,1.012,0.918,1.348
	c1.452,0.005,2.701,0.009,4.199,0.015c0.222,2.031,0.382,3.852,0.63,5.66c0.174,1.266,0.091,2.819,0.799,3.699
	c0.978,1.216,1.228,2.48,1.274,3.822c0.2,5.894,0.171,11.797,0.487,17.684c0.178,3.314-1.159,6.848,1.31,9.801
	c-0.313,0.34-0.525,0.521-0.672,0.745c-0.141,0.213-0.215,0.47-0.317,0.706c0.791,0.809,1.552,1.586,2.6,2.657
	c-1.387,0.342-2.228,0.549-2.998,0.739c-0.369,2.916-0.133,5.713-0.968,8.412c-1.421-3.025,0.321-6.275-1.182-9.343
	c-0.197,1.587-0.395,3.174-0.592,4.761c-0.182,0.021-0.365,0.042-0.547,0.062c-0.537-0.792-1.074-1.584-1.727-2.547
	c-0.12,1.347-0.225,2.532-0.357,4.02c-1.63-1.204-1.56-2.549-1.386-3.795c0.274-1.955-0.632-3.084-2.174-4.073
	c-1.624-1.041-3.099-2.31-4.667-3.441c-1.177-0.849-2.396-1.639-3.847-2.626c-0.764,1.013-1.445,1.841-2.044,2.726
	c-1.965,2.902-3.785,5.91-5.871,8.72c-4.742,6.387-10.347,12.022-16.089,17.48c-7.763,7.379-15.92,14.317-25.095,19.935
	c-6.447,3.947-12.753,8.182-19.459,11.634c-14.631,7.531-29.804,13.692-46.044,17.009c-9.073,1.853-18.104,1.923-27.204,0.634
	c-0.561-0.079-1.081-0.448-1.664-0.701c1.067-1.045,1.882-2.208,2.999-2.839c1.151-0.649,2.594-0.779,3.91-1.137
	c-2.778-0.941-5.467-1.451-8.163-1.921c-4.172-0.726-6.356-1.643-7.804-3.557c1.12-0.196,2.048-0.466,2.985-0.504
	c7.89-0.323,15.819,0.479,23.665-1.176c3.682-0.777,7.493-0.916,11.202-1.587c4.258-0.77,8.523-1.612,12.681-2.788
	c3.975-1.124,7.838-2.661,11.708-4.126c2.328-0.882,4.597-1.929,6.842-3.006c0.513-0.246,0.819-0.924,1.22-1.404
	C71.935,92.309,73.143,91.192,74.381,90.555z M68.672,75.879c0.058,0.19,0.116,0.38,0.174,0.57c0.605-0.256,1.211-0.511,1.816-0.767
	c0.656-0.06,1.311-0.12,1.967-0.181c-0.039-0.163-0.077-0.326-0.116-0.489c-0.61,0.243-1.219,0.485-1.829,0.727
	C70.013,75.786,69.343,75.833,68.672,75.879z M103.632,76.646c-0.066-0.133-0.132-0.267-0.198-0.4
	c-0.482,0.343-0.965,0.687-1.447,1.03c-0.87,0.628-1.739,1.256-2.608,1.883c-2.136,1.022-4.303,1.984-6.402,3.077
	c-7.757,4.039-15.491,8.121-23.233,12.187c-0.401,0.211-0.798,0.429-1.033,1.125c1.657-0.548,3.336-1.037,4.967-1.654
	c8.32-3.149,15.796-7.866,23.237-12.634c0.903-0.578,1.629-1.432,2.437-2.158c0.869-0.63,1.739-1.259,2.608-1.889
	C102.517,77.024,103.074,76.835,103.632,76.646z M168.335,37.574c0.088,0.001,0.176,0.001,0.265,0.002
	c0.029-0.818,0.059-1.636,0.1-2.806c-0.507,0.459-0.735,0.666-0.964,0.873c-0.132-0.886-0.343-1.762-0.38-2.646
	c-0.319-7.542-0.585-15.086-0.933-22.626c-0.042-0.913-0.479-1.808-0.882-3.24c-0.986,2.675,0.083,24.816,1.255,30.131
	c0.391-0.718,0.658-1.209,0.925-1.7C167.925,36.232,168.13,36.903,168.335,37.574z M133.583,53.355
	c-1.621,0.352-1.897,1.692-2.415,2.858c-2.687,2.087-5.39,4.149-8.061,6.252c-6.74,5.305-13.466,10.627-20.192,15.95
	c-0.401,0.317-0.745,0.705-1.558,1.483c0.964-0.185,1.34-0.161,1.603-0.321c5.025-3.061,10.477-5.62,14.934-9.362
	c4.898-4.113,8.877-9.321,13.257-14.051C131.961,55.227,132.772,54.291,133.583,53.355z M35.678,105.953
	c-0.026-0.111-0.053-0.222-0.079-0.333c-1.485,0.261-2.969,0.523-4.454,0.784c-2.715,0.476-5.381,0.978-8.176,0.134
	c-1.354-0.409-2.926-0.133-4.398-0.108c-4.694,0.08-9.388,0.183-14.082,0.291c-0.44,0.01-0.878,0.12-1.876,0.265
	c1.192,0.518,1.871,0.924,2.605,1.113c5.646,1.457,11.389,2.222,17.217,1.928c1.713-0.086,3.402-0.735,5.094-1.156
	c1.34-0.333,2.669-0.713,4.002-1.072c0.074,0.38,0.097,1.063,0.232,1.086c0.524,0.089,1.103,0.046,1.627-0.086
	c8.754-2.211,17.53-4.356,25.856-7.954c1.511-0.653,2.993-1.374,4.4-2.429c-0.618,0.162-1.234,0.331-1.854,0.485
	c-9.301,2.316-18.515,4.905-27.408,8.543c-0.891,0.364-1.966,0.277-2.956,0.399C32.846,107.213,34.262,106.583,35.678,105.953z
	 M118.736,71.574c-10.606,9.339-21.897,17.724-33.8,25.479c0.531-0.188,1.095-0.314,1.589-0.573
	c14.2-7.454,27.192-16.656,38.994-27.485c6.443-5.912,12.611-12.138,17.878-19.163c1.918-2.558,3.624-5.275,5.426-7.92
	c-0.159-0.129-0.319-0.258-0.478-0.386C139.265,52.333,129.316,62.258,118.736,71.574z M36.831,88.749
	c7.674,0.069,15.302-0.645,22.815-2.091c5.438-1.047,10.572-3.227,15.565-5.646c5.393-2.612,10.779-5.238,16.141-7.911
	c1.721-0.858,3.358-1.885,5.28-2.975c-1.881-0.097-2.355,0.159-3.961,0.906c-6.179,2.875-12.38,5.704-18.618,8.447
	c-0.822,0.362-1.912,0.09-2.872,0.173c-0.6,0.052-1.383,0.018-1.753,0.37c-1.86,1.77-4.237,2.195-6.575,2.664
	c-6.779,1.36-13.573,2.646-20.363,3.948c-2.486,0.477-4.979,0.916-7.469,1.373c0.008,0.167,0.015,0.334,0.023,0.501
	C35.639,88.593,36.234,88.744,36.831,88.749z M96.613,85.221c-3.178,2.751-6.812,5.09-10.543,7.041
	c-1.816,0.95-3.534,2.037-5.302,3.048c-2.173,1.243-4.368,2.299-6.861,2.877c-1.92,0.445-3.683,1.571-5.511,2.403
	c-1.593,0.725-3.181,1.462-4.771,2.194c-0.251,0.116-0.576,0.174-0.736,0.367c-3.347,4.013-8.556,3.844-12.846,5.73
	c-0.717,0.315-1.495,0.493-2.246,0.734c0.032,0.202,0.064,0.405,0.096,0.607c0.755-0.055,1.54,0.007,2.259-0.184
	c4.989-1.325,9.907-2.864,14.538-5.193c6.252-3.144,12.56-6.183,18.722-9.495c7.146-3.841,13.938-8.275,20.468-13.096
	c0.875-0.646,1.673-1.396,2.506-2.098c-0.122-0.169-0.244-0.337-0.366-0.506C102.966,81.635,99.493,82.727,96.613,85.221z
	 M147.426,36.672c-1.722,2.264-3.414,4.551-5.144,6.809c-3.296,4.305-6.611,8.595-9.915,12.894
	c-0.534,0.694-1.051,1.401-1.485,2.162c5.087-3.767,17.186-17.922,19.196-22.352C148.823,35.134,148.086,35.804,147.426,36.672z
	 M144.07,16.417c4.783-2.366,9.561-4.74,14.314-7.165c1.301-0.663,2.496-1.511,2.337-3.784c-6.293,3.579-12.28,6.985-18.268,10.391
	c0.116,0.257,0.232,0.513,0.348,0.77C143.226,16.563,143.701,16.599,144.07,16.417z M122.974,55.855
	c-9.722,4.376-17.977,10.384-26.546,15.789C102.544,69.294,120.048,58.777,122.974,55.855z M163.024,22.991
	c-1.53,0.174-1.839,1.116-1.939,2.123c-0.191,1.919-0.212,3.858-0.457,5.768c-0.235,1.831,0.702,2.685,2.673,3.502
	C163.538,30.356,163.591,26.741,163.024,22.991z M138.549,13.191c0.06,0.361,0.054,0.457,0.094,0.528
	c0.039,0.068,0.131,0.161,0.191,0.154c0.355-0.037,0.752-0.013,1.055-0.166c6.476-3.283,12.944-6.582,19.402-9.901
	c0.451-0.232,0.808-0.649,1.208-0.98c-0.089-0.062-0.178-0.125-0.267-0.187C152.98,6.168,145.728,9.698,138.549,13.191z
	 M111.266,65.559c-5.91,3.154-11.819,6.309-17.729,9.463c0.085,0.158,0.171,0.316,0.256,0.473
	C99.97,72.836,106.083,70.057,111.266,65.559z M130.726,50.723c2.804-2.471,5.535-5.025,8.272-7.572
	c0.082-0.077-0.003-0.334-0.028-0.93c-3.488,2.756-6.781,5.357-10.074,7.958c0.076,0.205,0.151,0.409,0.227,0.614
	C129.668,50.781,130.414,50.998,130.726,50.723z M155.097,27.351c1.345,1.162,2.477,2.14,3.782,3.266
	c1.214-1.794,0.96-3.547,0.887-5.825C158.047,25.735,156.775,26.432,155.097,27.351z M160.202,11.107
	c-3.637,1.941-7.426,3.628-10.586,6.36C153.462,15.872,157.321,14.3,160.202,11.107z M131.27,18.405
	c0.297,1.554,0.971,1.869,1.719,1.482c1.751-0.907,3.428-1.959,5.135-2.953c-0.163-0.383-0.326-0.766-0.489-1.149
	C135.487,16.669,133.339,17.553,131.27,18.405z M160.3,38.631c-0.925,2.68-0.65,3.074,2.896,4.498
	C163.567,40.471,161.465,40.074,160.3,38.631z M153.607,35.517c0.03,2.427,2.215,2.527,3.749,3.815
	C157.647,36.624,156.918,35.953,153.607,35.517z M139.542,24.521c1.498,2.334,2.615,2.819,4.934,1.85
	C142.668,25.465,141.621,23.805,139.542,24.521z M87.706,70.28c-0.064-0.168-0.128-0.335-0.193-0.503
	c-3.111,1.179-6.223,2.358-9.334,3.536c0.114,0.223,0.229,0.445,0.343,0.668C81.584,72.747,84.645,71.514,87.706,70.28z
	 M17.231,113.455c3.116-0.215,6.233-0.43,9.349-0.646C23.213,112.008,19.873,112.223,17.231,113.455z M153.378,24.579
	c1.154,1.607,1.965,1.371,4.933-1.241c-0.065-0.199-0.13-0.397-0.194-0.596C156.554,23.347,154.992,23.953,153.378,24.579z
	 M154.602,22.37c2.695,0.241,5.107-1.025,5.458-3.32C157.989,20.31,156.284,21.347,154.602,22.37z M150.529,34.299
	c1.356-0.089,1.549-1.309,2.483-2.17c-0.987-0.587-1.742-1.036-2.662-1.584C150.42,32.008,150.471,33.097,150.529,34.299z
	 M124.697,57.809c-2.147,0.426-3.66,1.796-5.234,3.073c0.141,0.199,0.281,0.399,0.422,0.598
	C121.489,60.257,123.093,59.033,124.697,57.809z M144.605,17.725c2.039,0.178,2.497-0.041,4.523-2.239
	C147.714,16.187,146.299,16.887,144.605,17.725z M145.541,28.654c0.591,1.148,1.333,1.359,2.678,0.569
	C147.35,28.003,146.631,27.626,145.541,28.654z M142.637,19.564c-1.247-0.621-1.962-0.005-2.981,0.824
	C141.231,21.261,141.983,20.846,142.637,19.564z M153.307,29.221c0.602,0.563,1.204,1.126,1.806,1.69
	c0.158-0.156,0.316-0.312,0.474-0.467C155.23,29.544,154.638,28.94,153.307,29.221z M154.849,33.473
	c-0.153,1.525,0.472,1.825,1.716,1.16C155.993,34.246,155.421,33.86,154.849,33.473z M161.313,20.076
	c1.769-0.593,1.511-1.341,0.531-2.269C161.694,18.45,161.544,19.092,161.313,20.076z M116.053,63.452
	c-0.097-0.15-0.194-0.3-0.291-0.45c-0.495,0.262-0.991,0.523-1.486,0.784c0.135,0.231,0.27,0.462,0.405,0.693
	C115.139,64.137,115.596,63.795,116.053,63.452z M111.667,59.956c-0.075-0.109-0.15-0.219-0.226-0.328
	c-0.62,0.385-1.239,0.77-1.859,1.155c0.101,0.13,0.202,0.26,0.303,0.391C110.479,60.767,111.073,60.362,111.667,59.956z
	 M138.11,18.423c0.061,0.152,0.121,0.304,0.182,0.456c0.526-0.189,1.052-0.378,1.578-0.567c-0.072-0.215-0.144-0.43-0.215-0.645
	C139.14,17.919,138.625,18.171,138.11,18.423z M146.839,23.87c0.046,0.24,0.091,0.48,0.137,0.721c0.44-0.116,0.88-0.233,1.32-0.349
	c-0.038-0.17-0.076-0.34-0.114-0.51C147.734,23.778,147.287,23.824,146.839,23.87z M149.659,26.346
	c0.725,0.435,1.218,0.731,1.711,1.027c0.126-0.208,0.252-0.416,0.379-0.625C151.463,25.943,150.987,25.569,149.659,26.346z
	 M89.729,77.042c0.06,0.126,0.121,0.252,0.181,0.379c0.556-0.27,1.113-0.54,1.669-0.81c-0.056-0.118-0.111-0.235-0.167-0.353
	C90.851,76.519,90.29,76.781,89.729,77.042z M142.784,14.396c-0.04-0.108-0.081-0.217-0.121-0.325
	c-0.553,0.204-1.106,0.409-1.659,0.613c0.044,0.164,0.088,0.328,0.132,0.492C141.685,14.916,142.235,14.656,142.784,14.396z
	 M130.247,47.585c-0.06-0.094-0.119-0.187-0.179-0.281c-0.435,0.279-0.871,0.559-1.306,0.838c0.104,0.126,0.208,0.251,0.311,0.377
	C129.465,48.207,129.856,47.896,130.247,47.585z M150.492,22.283c0.071,0.153,0.142,0.305,0.212,0.458
	c0.548-0.238,1.097-0.476,1.645-0.714c-0.081-0.201-0.162-0.403-0.243-0.604C151.569,21.71,151.031,21.996,150.492,22.283z
	 M165.313,4.17c0.015-0.251-0.058-0.508-0.097-0.762c-0.191,0.088-0.52,0.149-0.543,0.27c-0.042,0.217,0.099,0.469,0.167,0.72
	C165.051,4.301,165.309,4.243,165.313,4.17z"/>
</svg>
